<svg xmlns="http://www.w3.org/2000/svg" width="61" height="61" viewBox="0 0 61 61">
    <defs>
        <linearGradient id="n42adu1xea" x1="50%" x2="40.758%" y1="0%" y2="163.089%">
            <stop offset="0%" stop-color="#41B9A2"/>
            <stop offset="100%" stop-color="#07465D"/>
        </linearGradient>
    </defs>
    <g fill="none" fill-rule="evenodd">
        <g fill="url(#n42adu1xea)" fill-rule="nonzero" transform="translate(-533 -685)">
            <g>
                <path d="M16.866 0c1.642.005 2.972 1.335 2.977 2.976v12.898H37.7v-4.96c.005-1.642 1.334-2.972 2.976-2.977v-.992C40.682 3.11 43.788.005 47.622 0h1.984c3.834.004 6.94 3.111 6.945 6.945v.992c1.642.005 2.972 1.335 2.977 2.976v13.89c-.005 1.642-1.335 2.972-2.977 2.977h-4.96V42.66c0 2.74-2.221 4.961-4.961 4.961H35.717v3.969H37.7c1.642.005 2.971 1.334 2.976 2.976v3.969c0 .547-.444.992-.992.992H19.843c-.548 0-.993-.445-.993-.992v-3.969c.005-1.642 1.335-2.971 2.977-2.976h1.984v-3.969H12.898c-2.74 0-4.961-2.22-4.961-4.96V25.794h-4.96C1.334 25.79.004 24.461 0 22.82V2.976C.005 1.335 1.335.005 2.976 0zm20.835 53.575H21.827c-.548 0-.992.444-.992.992v2.976h17.858v-2.976c0-.548-.444-.992-.992-.992zm-3.969-5.953h-7.937v3.969h7.937v-3.969zm15.874-5.953H9.921v.992c.005 1.642 1.335 2.972 2.977 2.977H46.63c1.642-.005 2.971-1.335 2.976-2.977v-.992zM37.701 17.86H19.843v4.96c-.005 1.642-1.335 2.971-2.977 2.976H9.921v13.89h39.685V27.78h-8.968c1.728 1.264 2.446 3.497 1.777 5.532-.67 2.034-2.573 3.406-4.714 3.397H22.819c-3.15-.011-5.746-2.475-5.922-5.62-.177-3.145 2.128-5.883 5.257-6.246.833-2.396 3.09-4.004 5.626-4.008 1.78-.005 3.465.797 4.583 2.182.445-.129.906-.195 1.37-.198 1.569.005 3.042.757 3.968 2.024v-6.985zm-6.538 6.875c-.844-1.4-2.461-2.137-4.071-1.856-1.61.281-2.882 1.523-3.202 3.126-.094.462-.5.793-.972.793-.05.002-.1-.002-.149-.01-1.417.01-2.723.774-3.424 2.006-.701 1.232-.692 2.745.025 3.969.716 1.223 2.031 1.971 3.449 1.963H37.7c1.642-.005 2.971-1.335 2.976-2.977-.005-1.642-1.334-2.971-2.976-2.976-.548 0-.992-.444-.992-.992.008-1.026-.517-1.983-1.387-2.527-.87-.545-1.96-.598-2.88-.142-.459.232-1.02.067-1.28-.377zM56.55 9.92H40.677c-.548 0-.992.444-.992.992v13.89c0 .548.444.992.992.992h15.874c.548 0 .992-.444.992-.992v-13.89c0-.548-.444-.992-.992-.992zm-38.693 7.937H1.984v4.96c0 .549.444.993.992.993h13.89c.548 0 .992-.444.992-.992v-4.96zm30.515-5.923c.158-.04.324-.04.482 0l3.969.992c.441.111.75.508.75.963v3.316c.005 1.317-.518 2.58-1.452 3.509l-2.806 2.805c-.388.388-1.016.388-1.403 0l-2.807-2.805c-.933-.929-1.456-2.192-1.452-3.509V13.89c0-.455.31-.852.75-.963zm-37.46 7.908v1.984H8.93v-1.984h1.984zm-4.96 0v1.984H3.969v-1.984h1.984zm9.921 0v1.984H13.89v-1.984h1.984zm32.74-5.922l-2.976.744v2.541c-.002.79.311 1.548.871 2.106l2.105 2.104 2.106-2.104c.56-.558.873-1.316.87-2.106v-2.541l-2.976-.744zm-30.756-4H1.984v5.953h15.874V9.921zM5.953 11.906v1.984H3.969v-1.984h1.984zm4.96 0v1.984H8.93v-1.984h1.984zm4.961 0v1.984H13.89v-1.984h1.984zm13.89-9.923c1.259 0 2.38.797 2.794 1.986H37.7v1.984h-5.143c-.3.84-.962 1.501-1.802 1.801v4.152h-1.984V7.754c-.84-.3-1.502-.961-1.802-1.801h-5.143V3.969h5.143c.414-1.19 1.535-1.986 2.794-1.986zm19.842.001h-1.984c-2.74 0-4.96 2.221-4.96 4.96v.993h1.984v-.992c.005-1.642 1.334-2.972 2.976-2.976h1.984c1.642.004 2.972 1.334 2.977 2.976v.992h1.984v-.992c0-2.74-2.22-4.96-4.96-4.96zm0 3.969h-1.984c-.548 0-.992.444-.992.992v.992h3.969v-.992c0-.548-.445-.992-.993-.992zm-32.74-3.969H2.976c-.548 0-.992.444-.992.992v4.961h15.874v-4.96c0-.549-.444-.993-.992-.993zM5.953 3.97v1.984H3.969V3.969h1.984zm4.96 0v1.984H8.93V3.969h1.984zm4.961 0v1.984H13.89V3.969h1.984zm13.89 0c-.548 0-.992.444-.992.992s.444.992.992.992.992-.444.992-.992-.444-.992-.992-.992z" transform="translate(533.6 685.8)"/>
            </g>
        </g>
    </g>
</svg>
