<svg xmlns="http://www.w3.org/2000/svg" width="61" height="61" viewBox="0 0 61 61">
    <defs>
        <linearGradient id="wsna4kzfra" x1="50%" x2="40.758%" y1="0%" y2="163.089%">
            <stop offset="0%" stop-color="#41B9A2"/>
            <stop offset="100%" stop-color="#07465D"/>
        </linearGradient>
    </defs>
    <g fill="none" fill-rule="evenodd">
        <g fill="url(#wsna4kzfra)" fill-rule="nonzero" transform="translate(-861 -685)">
            <g>
                <path d="M51.745 1.223c1.985-1.62 4.874-1.474 6.685.338 1.812 1.811 1.958 4.7.338 6.685-1.62 1.985-4.48 2.421-6.618 1.01l-5.984 5.973c3.462 3.776 5.482 8.652 5.705 13.77h2.2c.486-1.37 1.888-2.194 3.322-1.948 1.434.246 2.482 1.49 2.482 2.945 0 1.454-1.048 2.698-2.482 2.944-1.434.246-2.836-.577-3.321-1.949h-2.2c-.224 5.119-2.244 9.995-5.706 13.77l5.984 5.975c2.138-1.412 4.998-.976 6.618 1.009 1.62 1.985 1.474 4.874-.338 6.685-1.811 1.812-4.7 1.958-6.685.338-1.985-1.62-2.421-4.48-1.009-6.618l-5.974-5.984c-3.776 3.462-8.652 5.482-13.77 5.705v2.2c1.37.486 2.194 1.888 1.948 3.322-.246 1.434-1.49 2.482-2.944 2.482-1.455 0-2.699-1.048-2.945-2.482-.246-1.434.577-2.836 1.949-3.321v-2.2c-5.119-.224-9.995-2.244-13.77-5.706L9.254 52.15c1.412 2.138.976 4.998-1.009 6.618-1.984 1.62-4.874 1.474-6.685-.338-1.812-1.811-1.958-4.7-.338-6.685 1.62-1.985 4.48-2.421 6.618-1.009l5.984-5.974c-3.462-3.776-5.482-8.652-5.705-13.77h-2.2c-.485 1.37-1.888 2.194-3.322 1.948-1.434-.246-2.482-1.49-2.482-2.944 0-1.455 1.048-2.699 2.482-2.945 1.434-.246 2.837.577 3.321 1.949H8.12c.223-5.119 2.243-9.995 5.705-13.77L7.841 9.254c-2.138 1.412-4.998.976-6.618-1.009-1.62-1.984-1.474-4.874.338-6.685 1.811-1.812 4.7-1.958 6.685-.338 1.985 1.62 2.421 4.48 1.01 6.618l5.973 5.984C19.005 10.363 23.881 8.343 29 8.12v-2.2c-1.37-.485-2.194-1.888-1.948-3.322.246-1.434 1.49-2.482 2.945-2.482 1.454 0 2.698 1.048 2.944 2.482.246 1.434-.577 2.837-1.949 3.321V8.12c5.119.223 9.995 2.243 13.77 5.705l5.975-5.984c-1.412-2.138-.976-4.998 1.009-6.618zM5.103 51.901c-1.65 0-2.987 1.337-2.987 2.987 0 1.65 1.337 2.987 2.987 2.987 1.648-.005 2.982-1.34 2.987-2.987 0-1.65-1.337-2.987-2.987-2.987zm49.785 0c-1.648.005-2.982 1.34-2.987 2.987 0 1.65 1.337 2.987 2.987 2.987 1.65 0 2.987-1.337 2.987-2.987 0-1.65-1.337-2.987-2.987-2.987zm-24.892 3.983c-.55 0-.996.446-.996.995 0 .55.446.996.996.996s.995-.446.995-.996-.446-.995-.995-.995zm13.332-40.635c-7.553-6.89-19.112-6.89-26.665 0l1.095 1.095-1.414 1.414-1.095-1.095c-6.89 7.553-6.89 19.112 0 26.665l1.095-1.095 1.414 1.414-1.095 1.095c7.553 6.89 19.112 6.89 26.665 0l-1.095-1.095 1.414-1.414 1.095 1.095c6.89-7.553 6.89-19.112 0-26.665l-1.095 1.095-1.414-1.414zm-17.315-1.185v1.992c0 2.2 1.783 3.983 3.983 3.983s3.982-1.784 3.982-3.983v-1.992h1.992v1.992c0 1.865-.873 3.623-2.36 4.75 2.584 1.15 4.478 3.447 5.118 6.202h4.212c.195 0 .386.059.547.17l2.987 1.991-1.095 1.653L42.641 29h-3.684v1.991h3.983c.195 0 .386.059.547.17l2.987 1.99-1.095 1.654-2.738-1.822h-3.684v1.991h3.983c.195 0 .386.059.547.17l2.987 1.99-1.095 1.654-2.738-1.823h-3.684c0 4.95-4.012 8.962-8.961 8.962-4.95 0-8.962-4.012-8.962-8.962H17.35l-2.738 1.823-1.095-1.653 2.987-1.992c.16-.11.352-.17.547-.169h3.983v-1.991H17.35l-2.738 1.822-1.095-1.653 2.987-1.992c.16-.11.352-.17.547-.169h3.983V29H17.35l-2.738 1.822-1.095-1.653 2.987-1.991c.16-.111.352-.17.547-.17h4.212c.64-2.755 2.534-5.051 5.118-6.203-1.487-1.126-2.36-2.884-2.36-4.75v-1.99h1.992zm4.978 22.344v7.448c2.824-.411 5.112-2.502 5.775-5.278l-5.775-2.17zm-1.991 0l-5.775 2.17c.663 2.776 2.951 4.867 5.775 5.278v-7.448zm7.886-8.404H30.99v6.283l5.974 2.24V29c0-.334-.028-.666-.08-.996zm-7.886 0h-5.895c-.051.33-.078.662-.08.996v7.527L29 34.287v-6.283zM56.88 29c-.55 0-.996.446-.996.996s.446.995.995.995c.55 0 .996-.446.996-.995 0-.55-.446-.996-.996-.996zM3.111 29c-.55 0-.996.446-.996.996s.446.995.996.995.995-.446.995-.995c0-.55-.446-.996-.995-.996zm26.884-6.97c-2.689 0-5.136 1.551-6.283 3.983h12.565c-1.147-2.432-3.594-3.983-6.282-3.983zM5.103 2.116c-1.65 0-2.987 1.337-2.987 2.987 0 1.65 1.337 2.987 2.987 2.987 1.648-.005 2.982-1.34 2.987-2.987 0-1.65-1.337-2.987-2.987-2.987zm49.785 0c-1.648.005-2.982 1.34-2.987 2.987 0 1.65 1.337 2.987 2.987 2.987 1.65 0 2.987-1.337 2.987-2.987 0-1.65-1.337-2.987-2.987-2.987zm-24.892 0c-.55 0-.996.446-.996.996s.446.995.996.995.995-.446.995-.995c0-.55-.446-.996-.995-.996z" transform="translate(861.2 685.8)"/>
            </g>
        </g>
    </g>
</svg>
