<svg xmlns="http://www.w3.org/2000/svg" width="61" height="61" viewBox="0 0 61 61">
    <defs>
        <linearGradient id="kow0ppksxa" x1="50%" x2="40.758%" y1="0%" y2="163.089%">
            <stop offset="0%" stop-color="#41B9A2"/>
            <stop offset="100%" stop-color="#07465D"/>
        </linearGradient>
    </defs>
    <g fill="none" fill-rule="evenodd">
        <g fill="url(#kow0ppksxa)" fill-rule="nonzero" transform="translate(-1078 -685)">
            <g>
                <path d="M22.819 19.843c1.644 0 2.976 1.332 2.976 2.976V56.55c0 1.644-1.332 2.977-2.976 2.977H2.976C1.333 59.528 0 58.195 0 56.55V22.82c0-1.644 1.333-2.976 2.976-2.976zm0 1.984H2.976c-.548 0-.992.444-.992.992V56.55c0 .548.444.992.992.992H22.82c.548 0 .992-.444.992-.992V22.82c0-.548-.444-.992-.992-.992zm-9.921 27.78c1.643 0 2.976 1.332 2.976 2.976s-1.333 2.976-2.976 2.976c-1.644 0-2.977-1.332-2.977-2.976s1.333-2.977 2.977-2.977zm19.713 3.042l1.917.514-.514 1.917-1.917-.514.514-1.917zm20.13-.018l.513 1.917-1.917.514-.514-1.917 1.917-.514zm-39.843-1.04c-.548 0-.992.444-.992.992s.444.992.992.992.992-.444.992-.992-.444-.992-.992-.992zm20.74-2.776l1.916.514-.514 1.917-1.917-.514.514-1.917zm18.072-.012l.514 1.917-1.917.514-.514-1.917 1.917-.514zM9.921 45.638v1.984H3.97v-1.984H9.92zm11.906 0v1.984h-5.953v-1.984h5.953zm12.836-.656l1.917.514-.514 1.917-1.916-.514.513-1.917zm16.02-.013l.514 1.917-1.917.513-.514-1.916 1.917-.514zM20.835 23.81c.548 0 .992.444.992.992v17.858c0 .548-.444.993-.992.993H4.96c-.548 0-.992-.445-.992-.993V24.803c0-.548.444-.992.992-.992zm28.804 17.354l.514 1.916-1.916.514-.514-1.916 1.916-.514zm-13.96-.043l1.916.514-.514 1.917-1.917-.514.514-1.917zm-29.726-6.42v6.967h5.953v-6.957l-5.953-.01zm7.937.013v6.954h5.953v-6.945l-5.953-.01zm22.828 2.598l1.917.514-.514 1.917-1.917-.514.514-1.917zm11.908-.01l.514 1.916-1.917.514-.514-1.916 1.917-.514zm-10.881-3.824l1.916.514-.514 1.916-1.916-.513.514-1.917zm9.854-.01l.514 1.917-1.917.514-.514-1.917 1.917-.513zm-27.756-7.674H13.89v6.937l5.953.008v-6.945zm-7.937 0H5.953v6.923l5.953.01v-6.933zM56.55 0c1.644 0 2.977 1.333 2.977 2.976-.006 1.257-.8 2.375-1.985 2.794v9.112c-.012 7.78-6.01 14.239-13.767 14.825-.741.076-1.488.076-2.229 0-7.757-.586-13.755-7.046-13.767-14.825V5.77c-1.366-.48-2.186-1.877-1.94-3.304C26.085 1.04 27.324-.003 28.772 0zm-13.89 9.921c-4.93 0-8.929 3.998-8.929 8.93.006 4.928 4 8.923 8.93 8.929 4.93 0 8.929-3.998 8.929-8.93 0-4.931-3.998-8.929-8.93-8.929zm0 1.985c3.834.004 6.941 3.11 6.945 6.944 0 3.836-3.109 6.945-6.945 6.945-3.835 0-6.944-3.109-6.944-6.945 0-3.835 3.109-6.944 6.944-6.944zm0 1.984c-2.74 0-4.96 2.22-4.96 4.96 0 2.74 2.22 4.961 4.96 4.961 2.739-.003 4.958-2.222 4.961-4.96 0-2.74-2.22-4.961-4.96-4.961zM55.56 5.953H29.764v8.929c0 2.868.962 5.653 2.732 7.91-1.777-4.55-.315-9.726 3.58-12.674 3.896-2.947 9.275-2.947 13.17 0 3.896 2.948 5.358 8.124 3.58 12.674 1.77-2.257 2.733-5.042 2.733-7.91v-8.93zm-12.898 9.921c1.644 0 2.977 1.333 2.977 2.976 0 1.644-1.333 2.977-2.977 2.977-1.643 0-2.976-1.333-2.976-2.977 0-1.643 1.333-2.976 2.976-2.976zm0 1.984c-.547 0-.992.444-.992.992s.445.993.992.993c.548 0 .993-.445.993-.993s-.445-.992-.993-.992zm-29.763-5.952c1.643 0 2.976 1.332 2.976 2.976s-1.333 2.976-2.976 2.976c-1.644 0-2.977-1.332-2.977-2.976s1.333-2.976 2.977-2.976zm0 1.984c-.548 0-.992.444-.992.992s.444.992.992.992.992-.444.992-.992-.444-.992-.992-.992zm0-5.952c1.741 0 3.414.654 4.69 1.827l.222.212-1.408 1.397c-.928-.93-2.188-1.453-3.502-1.453-1.227 0-2.406.456-3.313 1.272l-.19.18-1.41-1.396c1.302-1.305 3.069-2.04 4.912-2.04zm0-3.97c2.778 0 5.447 1.06 7.466 2.957l.25.241L19.21 8.57c-3.419-3.417-8.919-3.484-12.419-.201l-.207.201-1.403-1.403c2.046-2.047 4.821-3.198 7.716-3.198zm10.262.137l.26.252-1.4 1.406c-2.417-2.424-5.7-3.784-9.122-3.779-3.3-.005-6.471 1.26-8.86 3.524l-.262.255-1.4-1.406C8.102-1.367 17.332-1.45 23.16 4.105zm33.391-2.12h-27.78c-.547 0-.991.443-.991.991s.444.993.992.993h27.78c.547 0 .991-.445.991-.993s-.444-.992-.992-.992z" transform="translate(1078.4 685.8)"/>
            </g>
        </g>
    </g>
</svg>
