<svg xmlns="http://www.w3.org/2000/svg" width="53" height="59" viewBox="0 0 53 59">
    <defs>
        <linearGradient id="2zblo1ibha" x1="102.81%" x2="23.68%" y1="33.905%" y2="274.657%">
            <stop offset="0%" stop-color="#41B9A2"/>
            <stop offset="100%" stop-color="#07465D"/>
        </linearGradient>
        <linearGradient id="fzi5lfjfsb" x1="57.1%" x2="67.594%" y1="18.572%" y2="245.925%">
            <stop offset="0%" stop-color="#41B9A2"/>
            <stop offset="100%" stop-color="#07465D"/>
        </linearGradient>
        <linearGradient id="kouhk2d2wc" x1="102.81%" x2="40.758%" y1="26.765%" y2="133.607%">
            <stop offset="0%" stop-color="#41B9A2"/>
            <stop offset="100%" stop-color="#07465D"/>
        </linearGradient>
    </defs>
    <g fill="none" fill-rule="evenodd">
        <g fill-rule="nonzero">
            <g>
                <path fill="url(#2zblo1ibha)" d="M33.328 21.646c0-.076.006-.152.006-.223-.002-3.142-2.492-5.88-6.04-6.642-1.292-2.444-4.129-4.013-7.254-4.013s-5.962 1.57-7.254 4.013c-3.548.763-6.038 3.5-6.04 6.642 0 .076 0 .152.006.223-2.468 1.892-3.32 4.895-2.14 7.549 1.18 2.653 4.144 4.406 7.452 4.404h15.952c3.308.002 6.273-1.75 7.452-4.404 1.18-2.654.328-5.657-2.14-7.549zm-5.32 10.458H12.072c-2.635-.003-4.98-1.442-5.845-3.587-.866-2.146-.063-4.528 2.001-5.94.235-.16.36-.412.332-.668-.017-.161-.029-.324-.029-.489 0-2.572 2.128-4.779 5.062-5.248.304-.048.556-.23.666-.478.915-2.066 3.215-3.43 5.781-3.43s4.866 1.364 5.781 3.43c.11.249.362.43.666.478 2.934.47 5.062 2.676 5.062 5.248 0 .165-.012.328-.03.489-.027.256.098.508.333.668 2.064 1.412 2.867 3.794 2.001 5.94-.865 2.145-3.21 3.584-5.845 3.587z" transform="translate(-1187 -687) translate(1187.6 687)"/>
                <g>
                    <path fill="url(#fzi5lfjfsb)" d="M30.11 27.219h-5.583V10.564l1.42-5.679h.972c.44 0 .798-.357.798-.797V.898c0-.441-.357-.798-.798-.798h-9.57c-.441 0-.799.357-.799.797v3.19c0 .441.358.798.798.798h.973l1.42 5.68v16.654h-5.583c-.44 0-.798.357-.798.797v9.835c-.001 1.583.672 3.091 1.85 4.147l6.39 5.751c.302.277.766.277 1.068 0L29.057 42c1.179-1.057 1.852-2.565 1.85-4.148v-9.835c0-.44-.357-.797-.797-.797zM18.146 3.29V1.695h7.976V3.29h-7.976zm3.19 10.37v-2.394h1.595v2.393h-1.595zm-.175-3.989l-1.197-4.786h4.34l-1.197 4.786H21.16z" transform="translate(-1187 -687) translate(1187.6 687) translate(6.58) rotate(40 22.134 24.028)"/>
                    <path fill="#232836" d="M23.53 15.753L23.53 30.907 21.934 30.907 21.934 15.753z" transform="translate(-1187 -687) translate(1187.6 687) translate(6.58) rotate(40 22.732 23.33)"/>
                    <path fill="#232836" d="M20.638 34.66c.001 1.13-.48 2.207-1.324 2.96l-5.854 5.272-5.855-5.273c-.843-.752-1.325-1.829-1.324-2.959v-9.037h4.786v2.393c0 .44.357.798.797.798h3.19c.441 0 .799-.357.799-.798v-2.393h4.785v9.037z" transform="translate(-1187 -687) translate(1187.6 687) translate(6.58) rotate(40 13.46 34.257)"/>
                </g>
                <g>
                    <g fill="#232836">
                        <path d="M.04.159L3.23 32.86h31.905L38.325.159H.04zm19.143 7.178c-1.322 0-2.393-1.07-2.393-2.392 0-1.322 1.071-2.393 2.393-2.393 1.322 0 2.393 1.071 2.393 2.393 0 1.321-1.071 2.392-2.393 2.392z" transform="translate(-1187 -687) translate(1187.6 687) translate(0 23.626) translate(.798 1.113)"/>
                    </g>
                    <path fill="url(#kouhk2d2wc)" d="M16.013.474H.838C.612.473.396.568.244.735c-.152.167-.226.391-.204.617l3.19 32.702c.042.409.387.72.798.717h31.905c.41.003.756-.308.797-.717l3.19-32.702c.024-.226-.05-.45-.203-.617-.151-.167-.368-.262-.594-.26h-23.11zm21.22 11.964H20.777V9.135c1.556-.402 2.57-1.898 2.368-3.492-.203-1.593-1.559-2.788-3.166-2.788-1.606 0-2.962 1.195-3.164 2.788-.203 1.594.811 3.09 2.367 3.492v4.1c0 .441.357.799.797.799h17.097l-1.868 19.142H4.752L1.715 2.07h36.531l-1.014 10.37z" transform="translate(-1187 -687) translate(1187.6 687) translate(0 23.626)"/>
                    <path fill="#232836" d="M19.98 7.653c-.88 0-1.595-.714-1.595-1.596 0-.88.714-1.595 1.595-1.595.882 0 1.596.714 1.596 1.595 0 .882-.714 1.596-1.596 1.596z" transform="translate(-1187 -687) translate(1187.6 687) translate(0 23.626)"/>
                </g>
            </g>
        </g>
    </g>
</svg>
