<svg xmlns="http://www.w3.org/2000/svg" width="61" height="61" viewBox="0 0 61 61">
    <defs>
        <linearGradient id="z9hyg9k3qa" x1="50%" x2="50%" y1="0%" y2="100%">
            <stop offset="0%" stop-color="#36A395"/>
            <stop offset="100%" stop-color="#30968D"/>
        </linearGradient>
        <linearGradient id="c690w6qzob" x1="50%" x2="40.761%" y1="0%" y2="163.089%">
            <stop offset="0%" stop-color="#41B9A2"/>
            <stop offset="100%" stop-color="#07465D"/>
        </linearGradient>
    </defs>
    <g fill="none" fill-rule="evenodd">
        <g fill-rule="nonzero">
            <g>
                <path fill="url(#z9hyg9k3qa)" d="M48.949 28.644h1.015l1.567.524.353-1.047-1.655-.55c-.057-.018-.117-.027-.177-.028H48.95V26.44h1.015l1.567.523.353-1.046-1.655-.551c-.057-.017-.117-.027-.177-.028h-1.147c-.188-1.283-1.009-2.386-2.185-2.936.368-.402.572-.926.574-1.47V19.83H46.19v1.101c0 .609-.494 1.102-1.103 1.102-.61 0-1.104-.493-1.104-1.102v-1.101H42.88v1.101c.001.545.206 1.07.574 1.471-1.177.55-1.998 1.653-2.185 2.936H40.12c-.06.001-.119.01-.176.028l-1.655.55.353 1.047 1.567-.523h1.015v1.102H40.12c-.06 0-.119.01-.176.027l-1.655.551.353 1.047 1.567-.524h1.015v.551c0 .185.015.369.044.551H40.12c-.06.001-.119.01-.176.028l-1.655.55.353 1.047 1.567-.523h1.39c.638 1.345 1.996 2.203 3.487 2.203 1.49 0 2.849-.858 3.487-2.203h1.39l1.567.523.353-1.046-1.655-.551c-.057-.017-.117-.027-.177-.028h-1.147c.028-.182.043-.366.044-.55v-.552zm-4.423 3.285c-.805-.171-1.491-.695-1.871-1.429l1.87-.941v2.37zm0-3.6l-2.223 1.105c-.006-.067-.022-.134-.022-.2V26.44h2.245v1.888zm-2.12-3.01c.258-1.307 1.38-2.246 2.68-2.246 1.302 0 2.423.94 2.682 2.245h-5.363zm3.117 6.61v-2.37l1.871.941c-.38.734-1.066 1.258-1.87 1.429zm2.245-2.696c0 .067-.016.134-.022.201l-2.223-1.105V26.44h2.245v2.792z" transform="translate(-642 -685) translate(642.8 685.8)"/>
                <g fill="url(#c690w6qzob)" transform="translate(-642 -685) translate(642.8 685.8)">
                    <path d="M33.191 11.763l.107.335h21.704c2.682.003 4.868 2.119 4.984 4.773l.005.216v25.942c-.003 2.681-2.119 4.868-4.773 4.984l-.216.005H41.033v5.986h2.994c1.653 0 2.993 1.34 2.993 2.994 0 1.594-1.246 2.897-2.817 2.988l-.176.005h-13.97c-1.652 0-2.992-1.34-2.992-2.993 0-1.594 1.246-2.897 2.817-2.989l.176-.005h2.993v-5.986H22.076v6.984c0 2.755-2.234 4.989-4.99 4.989-2.682 0-4.87-2.118-4.983-4.772l-.005-.217v-17.96c0-.511.385-.933.881-.99l.117-.007h.998v-2.276C5.888 32.3-.035 25.087.122 16.752.279 8.417 6.469 1.432 14.725.274 22.864-.868 30.63 3.988 33.19 11.763zM20.081 38.04h-5.987v16.962c0 1.653 1.34 2.994 2.993 2.994 1.594 0 2.897-1.247 2.988-2.818l.005-.176V38.04zM44.026 56h-13.97c-.55 0-.997.447-.997.998 0 .511.385.933.882.99l.116.008h13.969c.55 0 .997-.447.997-.998 0-.551-.446-.998-.997-.998zM18.085 44.027V56h-1.996V44.027h1.996zm20.953 3.99h-3.991v5.987h3.99v-5.986zm18.958-5.986h-35.92v3.991h32.926c1.594 0 2.897-1.246 2.988-2.817l.006-.176v-.998zm-39.911-1.995v1.995h-1.996v-1.995h1.996zm36.917-25.942H33.77c.817 4.427-.17 8.997-2.74 12.693-2.494 3.583-6.276 6.056-10.547 6.907l-.402.075v2.276h.998c.512 0 .933.385.991.88l.007.117v2.994h35.92v-22.95c0-1.652-1.34-2.992-2.994-2.992zm-9.978 1.995C51.086 16.09 56 21.003 56 27.065c0 6.061-4.914 10.975-10.976 10.975-6.058-.007-10.968-4.917-10.975-10.975 0-6.062 4.914-10.976 10.975-10.976zM18.084 34c-.332.019-.66.05-.997.05-.225 0-.446-.014-.667-.029l-.33-.022v2.047h1.995v-2.047zm26.94-15.914c-4.957.005-8.974 4.022-8.98 8.98 0 4.96 4.021 8.98 8.98 8.98 4.96 0 8.98-4.02 8.98-8.98 0-4.96-4.02-8.98-8.98-8.98zM17.087 2.12C8.82 2.12 2.12 8.821 2.12 17.087c.01 8.262 6.705 14.957 14.967 14.966 8.266 0 14.966-6.7 14.966-14.966 0-8.266-6.7-14.967-14.966-14.967zm0 1.996c7.164 0 12.97 5.807 12.97 12.97-.007 7.161-5.81 12.964-12.97 12.972-7.164 0-12.971-5.807-12.971-12.971S9.923 4.116 17.086 4.116zm0 1.995c-6.062 0-10.976 4.914-10.976 10.976.008 6.058 4.917 10.968 10.976 10.975 6.061 0 10.975-4.914 10.975-10.975 0-6.062-4.914-10.976-10.975-10.976zm0 1.996v1.995c-3.775.005-6.85 3-6.98 6.745l-.005.24H8.107c.005-4.957 4.023-8.975 8.98-8.98z"/>
                </g>
            </g>
        </g>
    </g>
</svg>
