<svg xmlns="http://www.w3.org/2000/svg" width="32" height="61" viewBox="0 0 32 61">
    <defs>
        <linearGradient id="y2bokeji5a" x1="50%" x2="47.488%" y1="0%" y2="163.089%">
            <stop offset="0%" stop-color="#41B9A2"/>
            <stop offset="100%" stop-color="#07465D"/>
        </linearGradient>
    </defs>
    <g fill="none" fill-rule="evenodd">
        <g fill="url(#y2bokeji5a)" fill-rule="nonzero" transform="translate(-452 -685)">
            <g>
                <path d="M28.382.5c1.485.028 2.694 1.153 2.85 2.611l.014.177.002.166V34.6c.025 1.476-1.055 2.725-2.506 2.934l-.176.02-.184.009h-.835V52.25l.242.002c1.505.185 2.716 1.29 3.057 2.74l.04.192.03.194c.224 1.826-.966 3.513-2.741 3.935l-.192.04-.256.034-23.721-.004c-1.636-.201-2.925-1.49-3.127-3.126-.225-1.827.965-3.513 2.74-3.936l.193-.04.255-.033h.18V37.561h-.844C1.986 37.537.815 36.499.586 35.126l-.024-.173-.013-.177-.003-.166V3.462C.521 1.986 1.601.737 3.052.53l.176-.02.184-.01h24.97zm-.655 53.723H4.067c-.882 0-1.597.715-1.597 1.597 0 .79.576 1.454 1.323 1.577l.142.017.132.005h23.66c.882 0 1.597-.715 1.597-1.597 0-.883-.714-1.599-1.597-1.6zm-2.119-16.66H6.185v14.685h19.423V37.562zm2.765-35.09H3.418c-.455.01-.834.337-.92.752l-.015.105-.004.124v31.162c-.006.456.308.847.72.946l.106.018.107.009h24.965c.454-.01.833-.336.919-.751l.015-.106.004-.123V3.446c.008-.528-.413-.963-.942-.972zm-5.945 27.023c1.137 0 2.067.89 2.068 1.998.001.99-.743 1.814-1.743 1.975l-.16.02-.165.006H9.567c-1.137 0-2.067-.89-2.068-1.998-.001-.99.743-1.815 1.744-1.975l.16-.02.164-.006h12.86zm0 1l-12.839-.001-.121.005c-.552.048-.97.483-.97.996.001.51.414.938.952.993l.117.006h12.839l.121-.004c.552-.048.97-.484.97-.997-.001-.51-.413-.937-.952-.993l-.118-.006zm1.17-24.965c1.072.02 1.958.818 2.108 1.878l.017.16.004.158v16.178c.017 1.073-.75 1.986-1.805 2.172l-.16.022-.174.01H8.198c-1.074-.02-1.96-.818-2.11-1.878l-.017-.16-.004-.158V7.735c-.017-1.073.751-1.986 1.805-2.172l.16-.022.174-.01h15.391zM8.216 7.5c-.086.002-.161.055-.193.112l-.015.044-.004.07V23.92c-.001.087.049.163.106.197l.043.016.052.007h15.371c.087-.002.162-.055.193-.113l.015-.043.004-.071V7.72c.002-.1-.064-.184-.154-.211l-.053-.01H8.217z" transform="translate(452 685.8)"/>
            </g>
        </g>
    </g>
</svg>
