<svg xmlns="http://www.w3.org/2000/svg" width="74" height="70" viewBox="0 0 74 70">
    <defs>
        <linearGradient id="ytlw36l5ma" x1="50%" x2="47.689%" y1="0%" y2="163.089%">
            <stop offset="0%" stop-color="#41B9A2"/>
            <stop offset="100%" stop-color="#07465D"/>
        </linearGradient>
    </defs>
    <g fill="none" fill-rule="evenodd">
        <g>
            <g>
                <path d="M2.267 6.802H68.02V66.887H2.267z" transform="translate(-1394 -681) translate(1394 681)"/>
                <g fill="url(#ytlw36l5ma)" fill-rule="nonzero" transform="translate(-1394 -681) translate(1394 681) rotate(50 25.993 55.89)">
                    <g>
                        <path d="M21.354 0c1.633.002 2.968 1.278 3.063 2.888l.005.18v12.473h5.44c1.837 0 3.338 1.44 3.436 3.253l.005.189V58.51c-.004 4.387-3.493 7.957-7.849 8.092l-.247.004H8.096C3.709 66.602.139 63.112.004 58.757L0 58.51V18.983c0-1.838 1.44-3.339 3.253-3.437l.188-.005h5.44V3.068C8.882 1.435 10.159.1 11.769.005l.18-.005h9.405zm8.507 17.762H3.441c-.632 0-1.152.48-1.215 1.096l-.006.125V58.51c.004 3.17 2.515 5.751 5.656 5.871l.22.005h17.111c3.17-.005 5.752-2.515 5.871-5.656l.005-.22V18.983c0-.675-.547-1.221-1.222-1.221zm.112 1.11V58.51c-.005 2.557-2.02 4.642-4.548 4.76l-.218.005H8.096c-2.557-.004-4.643-2.018-4.76-4.547l-.006-.218V18.872h26.643zm-2.22 2.22H5.55V58.51c.005 1.348 1.053 2.45 2.379 2.54l.167.005h17.111c1.348-.004 2.45-1.052 2.54-2.378l.005-.167V21.092zM12.217 45.79l2.056.7 6.76 2.296v4.539l-2.924.932-4.758 1.517-1.134.36v-2.992l.002-2.905v-.227l3.166 1.077v.899l2.877-1.002-.92-.32-5.125-1.787v-3.087zm.002-4.732l8.813 2.997v3.13l-8.815-2.994.002-3.133zm0-6.947l3.166 1.076.002 2.245 5.645 1.92v3.13l-5.643-1.915-3.165-1.075-.007-.004.002-2.243h-.002l.002-2.907v-.227zm8.813-8.341v6.124l-3.168-1.077v-.901l-2.877 1.004.92.318 5.125 1.789v3.085l-2.054-.698-6.761-2.296v-4.54l2.925-.93L19.9 26.13l1.134-.36zm.32-23.55H11.95c-.432 0-.789.323-.841.741l-.007.106v12.473h11.1V3.068c0-.468-.379-.847-.847-.848zm-5.812 2.22v2.22h-2.22V4.44h2.22zm4.44 0v2.22h-2.22V4.44h2.22z"/>
                    </g>
                </g>
            </g>
        </g>
    </g>
</svg>
