<svg xmlns="http://www.w3.org/2000/svg" width="60" height="61" viewBox="0 0 60 61">
    <defs>
        <linearGradient id="yfxcekjepa" x1="50%" x2="40.758%" y1="0%" y2="163.089%">
            <stop offset="0%" stop-color="#41B9A2"/>
            <stop offset="100%" stop-color="#07465D"/>
        </linearGradient>
    </defs>
    <g fill="none" fill-rule="evenodd">
        <g fill="url(#yfxcekjepa)" fill-rule="nonzero" transform="translate(-752 -685)">
            <g>
                <path d="M16.997 41.994c1.655.005 2.995 1.345 3 3v7.998c-.005 1.655-1.345 2.995-3 3h-3.999v2h2v1.999H4.999v-2h2v-2h-4C1.346 55.988.006 54.648 0 52.993v-7.999c.005-1.654 1.345-2.994 3-3zm38.995 2c1.654.004 2.994 1.344 3 2.999v6.999c.551 0 .999.448.999 1v2c-.005 1.654-1.345 2.994-3 2.999H42.994c-1.655-.005-2.995-1.345-3-3v-2c0-.551.448-1 1-1v-6.998c.005-1.655 1.345-2.995 3-3zM10.998 55.991h-2v2h2v-2zm46.993 0H41.994v1c0 .552.447 1 1 1H56.99c.553 0 1-.448 1-1v-1zm-39.994-4H2v1c0 .552.447 1 1 1h13.997c.553 0 1-.448 1-1v-1zm37.995-5.999H43.993c-.552 0-1 .448-1 1v6.999h13.998v-6.999c0-.552-.447-1-1-1zm-38.995-2H3c-.553 0-1 .448-1 1v5h15.997v-5c0-.552-.447-1-1-1zm12.999-27.995c3.865 0 6.998 3.133 6.998 6.999v1c1.655.004 2.995 1.344 3 2.999v11.998c-.005 1.655-1.345 2.995-3 3H22.997c-1.655-.005-2.995-1.345-3-3V26.996c.005-1.655 1.345-2.995 3-3v-1c0-3.865 3.133-6.998 6.999-6.998zm19.997 15.997c.552 0 1 .448 1 1v8.999h-2v-8h-7v-1.999zm-11.999 2H21.997v5c0 .551.447.999 1 .999h13.997c.553 0 1-.448 1-1v-5zm-19.997-2v2h-6.999v5.999h-2v-6.999c0-.552.448-1 1-1h8zm8 4v2h-2v-2h2zm4.998 0v2h-2v-2h2zm5 0v2h-2v-2h2zm1-9.999H22.996c-.553 0-1 .448-1 1v5h15.997v-5c0-.552-.447-1-1-1zm-10.999 2v2h-2v-2h2zm9.999 0v2h-2v-2h2zm-5 0v2h-2v-2h2zm19.997-7.999v6.999c0 .552-.447 1-1 1h-7.998v-2h6.999v-5.999h2zm-39.994-2v8h7v1.999h-8c-.552 0-1-.448-1-1v-8.999h2zm18.998 0c-2.761 0-5 2.239-5 5v1h2v-1c0-1.657 1.343-3 3-3 1.656 0 3 1.343 3 3v1h1.999v-1c0-2.761-2.238-5-5-5zm0 4c-.553 0-1 .447-1 1v1h2v-1c0-.553-.448-1-1-1zM52.992 0c1.655.005 2.995 1.345 3 3v1h1c1.654.004 2.994 1.344 2.999 2.999v7.999c-.005 1.654-1.345 2.994-3 3H44.993c-1.654-.006-2.994-1.346-3-3V3c.006-1.655 1.346-2.995 3-3zm0 2h-7.999c-.552 0-1 .447-1 1v11.998c0 .552.448 1 1 1h5.18c-.117-.321-.178-.66-.18-1V6.999c.004-1.655 1.345-2.995 3-3h.999V3c0-.552-.448-1-1-1zm4 4h-4c-.552 0-1 .447-1 .999v7.999c0 .552.448 1 1 1h4c.552 0 1-.448 1-1V6.999c0-.552-.448-1-1-1zM10.997 0c1.794-.005 3.493.804 4.62 2.2 1.353-.396 2.81-.2 4.011.54 1.2.74 2.032 1.953 2.288 3.34 2.552.46 4.327 2.798 4.087 5.38-.24 2.583-2.414 4.553-5.007 4.538H5.999C2.825 15.986.21 13.504.031 10.334c-.178-3.17 2.145-5.929 5.298-6.295C6.17 1.625 8.442.005 11 0zm3.41 3.93c-.85-1.411-2.48-2.154-4.103-1.87-1.622.283-2.904 1.534-3.226 3.15-.095.465-.505.8-.98.8-.05 0-.1-.003-.15-.01-2.209.013-3.988 1.815-3.974 4.024.014 2.208 1.815 3.988 4.024 3.974h14.998c1.656 0 3-1.343 3-3 0-1.656-1.344-3-3-3-.552 0-1-.447-1-.999.008-1.034-.521-1.998-1.398-2.547-.876-.548-1.975-.602-2.901-.143-.463.235-1.028.068-1.29-.38z" transform="translate(752 685.8)"/>
            </g>
        </g>
    </g>
</svg>
