<svg xmlns="http://www.w3.org/2000/svg" width="61" height="61" viewBox="0 0 61 61">
    <defs>
        <linearGradient id="hfuyvivida" x1="50%" x2="40.758%" y1="0%" y2="163.089%">
            <stop offset="0%" stop-color="#41B9A2"/>
            <stop offset="100%" stop-color="#07465D"/>
        </linearGradient>
    </defs>
    <g fill="none" fill-rule="evenodd">
        <g fill="url(#hfuyvivida)" fill-rule="nonzero" transform="translate(-1288 -685)">
            <g>
                <path d="M44.564 0c.547 0 .99.443.99.99v3.962c0 .546-.443.99-.99.99h-.99v5.942h12.874c1.638.005 2.966 1.332 2.97 2.97v41.594c-.004 1.638-1.332 2.966-2.97 2.97H36.64c-1.638-.004-2.966-1.332-2.97-2.97V39.612H.99c-.548 0-.991-.443-.991-.99v-3.961c0-.547.443-.99.99-.99h.99V5.94H.99c-.547 0-.99-.443-.99-.99V.992C0 .442.443 0 .99 0zm11.884 13.864H36.64c-.547 0-.99.444-.99.99v41.594c0 .546.443.99.99.99h19.807c.546 0 .99-.444.99-.99V14.855c0-.547-.444-.99-.99-.99zM3.96 55.457v1.98H0v-1.98h3.961zm25.748 0v1.98H5.942v-1.98h23.767zM3.961 49.515v1.981H0v-1.98h3.961zm25.748 0v1.981H5.942v-1.98h23.767zM3.961 43.574v1.98H0v-1.98h3.961zm25.748 0v1.98H5.942v-1.98h23.767zm3.961-7.923H1.98v1.98h31.69v-1.98zm7.923-29.71H3.96v27.73h29.71V14.854c.004-1.64 1.332-2.966 2.97-2.971h4.952V5.942zm-25.748 5.943c.547 0 .99.443.99.99v7.922h7.923c.547 0 .99.444.99.99 0 5.47-4.434 9.904-9.903 9.904-5.47 0-9.903-4.434-9.903-9.903 0-5.47 4.434-9.903 9.903-9.903zm7.861 10.893H16.29l-4.927 5.536c1.317.91 2.88 1.397 4.482 1.396 3.99-.006 7.356-2.973 7.861-6.932zm-8.851-8.851c-3.959.504-6.927 3.87-6.933 7.86.001 1.917.7 3.767 1.965 5.206l4.968-5.583zm4.951-6.004c5.467.006 9.897 4.437 9.903 9.904 0 .546-.443.99-.99.99h-8.913c-.547 0-.99-.444-.99-.99V8.913c0-.547.443-.99.99-.99zm21.787 7.923v1.98h-1.98v-1.98h1.98zm7.922 0v1.98h-5.941v-1.98h5.941zm3.962 0v1.98h-1.981v-1.98h1.98zm-32.68-5.88v6.87h6.87c-.458-3.587-3.283-6.412-6.87-6.87zM43.573 1.98H1.98v1.98h41.593v-1.98z" transform="translate(1288.4 685.8)"/>
            </g>
        </g>
    </g>
</svg>
