<svg xmlns="http://www.w3.org/2000/svg" width="98" height="99" viewBox="0 0 68 69">
    <defs>
        <linearGradient id="klixhsvo4a" x1="50%" x2="41.136%" y1="0%" y2="163.089%">
            <stop offset="0%" stop-color="#41B9A2"/>
            <stop offset="100%" stop-color="#07465D"/>
        </linearGradient>
        <filter id="t026xiu8wb" width="232.2%" height="230%" x="-66.1%" y="-65%" filterUnits="objectBoundingBox">
            <feOffset in="SourceAlpha" result="shadowOffsetOuter1"/>
            <feGaussianBlur in="shadowOffsetOuter1" result="shadowBlurOuter1" stdDeviation="10"/>
            <feColorMatrix in="shadowBlurOuter1" result="shadowMatrixOuter1" values="0 0 0 0 0.254901961 0 0 0 0 0.725490196 0 0 0 0 0.634169752 0 0 0 0.3 0"/>
            <feMerge>
                <feMergeNode in="shadowMatrixOuter1"/>
                <feMergeNode in="SourceGraphic"/>
            </feMerge>
        </filter>
    </defs>
    <g fill="none" fill-rule="evenodd">
        <g fill="url(#klixhsvo4a)" fill-rule="nonzero" transform="translate(-680 -680)">
            <g filter="url(#t026xiu8wb)" transform="translate(685 685.8)">
                <g>
                    <path d="M29.268 0c4.676 0 9.077 2.206 11.876 5.953h8.958c1.642.005 2.972 1.334 2.977 2.976v27.65l5.228 19.188c.25.895.065 1.855-.499 2.593-.563.739-1.44 1.17-2.368 1.168H3.095c-.928.003-1.805-.43-2.368-1.168s-.748-1.698-.499-2.593L5.457 36.58V8.93c.005-1.643 1.334-2.972 2.976-2.977h8.959C20.19 2.206 24.592 0 29.268 0zm22.065 37.7H7.203l-5.07 18.583c-.081.302-.02.624.169.873.188.248.483.391.793.387H55.44c.311.004.605-.14.794-.387.188-.249.25-.571.168-.873l-5.07-18.582zM37.205 49.607c.455 0 .852.31.962.751l.992 3.969c.075.296.008.61-.18.851s-.476.382-.782.382H20.339c-.306 0-.595-.14-.783-.382-.188-.24-.254-.555-.18-.851l.992-3.969c.111-.441.508-.75.963-.75zm-.775 1.985H22.106l-.496 1.984h15.316l-.496-1.984zm-23.036-7.937v1.984H9.425v-1.984h3.969zm5.952 0v1.984h-3.968v-1.984h3.968zm5.953 0v1.984h-3.968v-1.984h3.968zm11.906 0v1.984h-3.969v-1.984h3.969zm5.953 0v1.984h-3.969v-1.984h3.969zm5.952 0v1.984h-3.968v-1.984h3.968zm-17.858 0v1.984h-3.968v-1.984h3.968zm-17.858-3.969v1.984H9.425v-1.984h3.969zm5.952 0v1.984h-3.968v-1.984h3.968zm5.953 0v1.984h-3.968v-1.984h3.968zm11.906 0v1.984h-3.969v-1.984h3.969zm5.953 0v1.984h-3.969v-1.984h3.969zm5.952 0v1.984h-3.968v-1.984h3.968zm-17.858 0v1.984h-3.968v-1.984h3.968zM16.112 7.937H8.433c-.548 0-.992.444-.992.992v26.788h43.654V8.929c0-.548-.445-.992-.993-.992h-7.679c3.312 6.262 1.75 13.99-3.731 18.475-5.482 4.485-13.366 4.485-18.848 0-5.482-4.486-7.043-12.213-3.732-18.475zm18.116 23.811v1.984h-9.92v-1.984h9.92zm-4.96-29.764c-7.12.007-12.891 5.777-12.898 12.898 0 7.123 5.775 12.898 12.898 12.898 7.123 0 12.897-5.775 12.897-12.898 0-7.123-5.774-12.898-12.897-12.898zm-.992 1.985v1.984c0 .548.444.992.992.992s.992-.444.992-.992V3.969h1.984v1.984c.001.595-.179 1.176-.516 1.667 1.233.706 2.106 1.904 2.401 3.293h2.084c.155.001.308.039.446.11l1.984.992-.893 1.766-1.775-.883h-1.747v1.984h1.985c.155 0 .308.038.446.109l1.984.992-.893 1.766-1.775-.883h-1.747v.992c-.002.333-.035.665-.099.992h2.084c.155.001.308.039.446.11l1.984.992-.893 1.766-1.775-.883h-2.768c-.925 1.248-2.386 1.984-3.94 1.984-1.552 0-3.014-.736-3.938-1.984h-2.768l-1.776.883-.893-1.766 1.984-.992c.139-.071.292-.109.447-.11h2.083c-.063-.327-.096-.659-.099-.992v-.992h-1.746l-1.776.883-.893-1.766 1.984-.992c.139-.07.292-.108.447-.11h1.984v-1.983h-1.746l-1.776.883-.893-1.766 1.984-.992c.139-.071.292-.109.447-.11h2.083c.295-1.39 1.169-2.587 2.401-3.293-.337-.49-.517-1.072-.516-1.667V3.969h1.985zm0 12.897l-1.935 1.449c.168 1.075.91 1.973 1.935 2.341v-3.79zm1.984 0v3.79c1.024-.368 1.766-1.266 1.935-2.341l-1.935-1.449zm-1.984-3.968H26.29v2.976l1.985-1.488v-1.488zm3.968 0H30.26v1.488l1.984 1.488v-2.976zm-2.976-3.97c-1.26 0-2.382.797-2.798 1.985h5.596c-.417-1.188-1.539-1.984-2.798-1.984z"/>
                </g>
            </g>
        </g>
    </g>
</svg>
