<svg xmlns="http://www.w3.org/2000/svg" width="24" height="24" viewBox="0 0 24 24">
    <g fill="none" fill-rule="evenodd">
        <g>
            <g>
                <g>
                    <path d="M0 0L24 0 24 24 0 24z" transform="translate(-949 -906) translate(920 877) translate(29 29)"/>
                    <path fill="#FFF" fill-rule="nonzero" d="M11.141 4c-1.582 0-2.387.169-3.128.565-.618.325-1.123.83-1.448 1.448C6.169 6.753 6 7.559 6 9.14v5.718c0 1.582.169 2.387.565 3.128.337.63.818 1.111 1.448 1.448.74.396 1.546.565 3.128.565h1.718c1.582 0 2.387-.169 3.128-.565.618-.325 1.123-.83 1.448-1.448.396-.74.565-1.546.565-3.128V9.14c0-1.582-.169-2.387-.565-3.128-.325-.618-.83-1.123-1.448-1.448C15.247 4.169 14.441 4 12.86 4h-1.72.001zm0-2h1.718c2.014 0 3.094.278 4.072.801.966.511 1.757 1.302 2.268 2.268.523.978.801 2.058.801 4.072v5.718c0 2.014-.278 3.094-.801 4.072-.511.966-1.302 1.757-2.268 2.268-.978.523-2.058.801-4.072.801H11.14c-2.014 0-3.094-.278-4.072-.801-.966-.511-1.757-1.302-2.268-2.268-.522-.978-.8-2.058-.8-4.072V9.14c0-2.014.278-3.094.801-4.072.512-.966 1.302-1.756 2.269-2.267C8.047 2.278 9.127 2 11.141 2zM11 6h2v5h-2V6z" transform="translate(-949 -906) translate(920 877) translate(29 29)"/>
                </g>
            </g>
        </g>
    </g>
</svg>
