<svg xmlns="http://www.w3.org/2000/svg" width="15" height="15" viewBox="0 0 15 15">
    <g fill="none" fill-rule="evenodd">
        <g>
            <g>
                <g>
                    <path d="M0 0L15 0 15 15 0 15z" transform="translate(-335 -71) translate(261 71) translate(74)"/>
                    <path fill="#FFF" fill-rule="nonzero" d="M13 10.201v2.161c0 .321-.249.587-.569.61-.267.018-.485.028-.654.028C6.377 13 2 8.623 2 3.222c0-.168.01-.387.028-.654.023-.32.289-.568.61-.568h2.16c.158 0 .29.119.305.275.014.14.027.252.04.337.12.848.37 1.672.737 2.445.058.123.02.269-.09.347l-1.318.942c.806 1.88 2.303 3.376 4.182 4.183l.941-1.317c.08-.11.227-.149.35-.09.773.366 1.597.615 2.445.736.084.012.196.025.336.039.156.016.274.147.274.304z" transform="translate(-335 -71) translate(261 71) translate(74)"/>
                </g>
            </g>
        </g>
    </g>
</svg>
