<svg xmlns="http://www.w3.org/2000/svg" width="24" height="24" viewBox="0 0 24 24">
    <g fill="none" fill-rule="evenodd">
        <g>
            <g>
                <g fill="#41B9A2" fill-rule="nonzero">
                    <path fill-opacity=".5" d="M.037 7.2v10.967c0 .322.263.583.588.583h1.176V6.618H.625c-.325 0-.588.26-.588.583zM19.38 6.618H9.597V18.75h9.785c.321 0 .582-.261.582-.583V7.2c0-.322-.26-.583-.582-.583zm-6.387 9.155c-.552 0-1-.448-1-1.001 0-.553.448-1.002 1-1.002.553 0 1 .449 1 1.002 0 .553-.447 1.001-1 1.001zm0-4.003c-.552 0-1-.448-1-1.001 0-.553.448-1.002 1-1.002.553 0 1 .449 1 1.002 0 .553-.447 1.001-1 1.001zm4 4.003c-.552 0-1-.448-1-1.001 0-.553.448-1.002 1-1.002.553 0 1 .449 1 1.002 0 .553-.447 1.001-1 1.001zm0-4.003c-.552 0-1-.448-1-1.001 0-.553.448-1.002 1-1.002.553 0 1 .449 1 1.002 0 .553-.447 1.001-1 1.001zM16.728.583c0-.322-.261-.583-.583-.583H3.855c-.322 0-.583.261-.583.583v4.073c.425-.242.916-.38 1.439-.38h1.944c.953 0 1.8.458 2.332 1.165h7.74V.583z" transform="translate(-1666 -2535) translate(1666 2535) translate(2 2)"/>
                    <path d="M6.67 5.441H4.727c-.966 0-1.75.785-1.75 1.752v10.981c0 .968.784 1.752 1.75 1.752H6.67c.966 0 1.75-.784 1.75-1.752V7.194c0-.968-.784-1.753-1.75-1.753z" transform="translate(-1666 -2535) translate(1666 2535) translate(2 2)"/>
                </g>
            </g>
        </g>
    </g>
</svg>
