<svg xmlns="http://www.w3.org/2000/svg" width="24" height="24" viewBox="0 0 24 24">
    <g fill="none" fill-rule="evenodd">
        <g>
            <g>
                <g transform="translate(-1666 -2483) translate(1458 2477) translate(208 6)">
                    <path d="M0 0L24 0 24 24 0 24z"/>
                    <path fill="#41B9A2" fill-opacity=".5" fill-rule="nonzero" d="M21 19.956c0 .525-.406.961-.93.998-.437.03-.794.046-1.07.046-8.837 0-16-7.163-16-16 0-.276.015-.633.046-1.07.037-.524.473-.93.998-.93H7.58c.257 0 .472.194.498.45.023.23.044.413.064.552.199 1.387.606 2.736 1.208 4.001.095.2.033.439-.147.567l-2.158 1.542c1.32 3.074 3.77 5.525 6.844 6.844l1.54-2.154c.13-.182.371-.244.573-.149 1.265.6 2.614 1.007 4 1.205.139.02.322.042.55.064.255.026.45.241.449.498L21 19.956z"/>
                    <rect width="9" height="3" x="4.36" y="3.782" fill="#41B9A2" rx="1" transform="rotate(71 8.86 5.282)"/>
                    <rect width="9" height="3" x="14" y="14" fill="#41B9A2" rx="1" transform="rotate(13 18.5 15.5)"/>
                </g>
            </g>
        </g>
    </g>
</svg>
